<?xml version="1.0" encoding="UTF-8"?>
<svg version="1.1" xmlns="http://www.w3.org/2000/svg" viewBox="0 0 168 168" width="24" height="24">
<path d="M0 0 C1.69149782 1.30168762 3.36593259 2.62690887 5 4 C4.70741747 9.99794197 2.21707057 13.04972369 -2 17 C-14.41572113 27.46595987 -27.81384846 30.37494928 -43.59765625 29.7109375 C-45.63598513 29.65448692 -47.67440354 29.60119636 -49.71289062 29.55078125 C-52.89709088 29.47056726 -56.07628818 29.3743532 -59.25805664 29.22509766 C-71.36484548 28.09850671 -71.36484548 28.09850671 -81.99169922 32.49316406 C-83.78355672 35.30372656 -85.03270581 37.81825697 -86 41 C-85.04746338 40.9685791 -84.09492676 40.9371582 -83.11352539 40.90478516 C-79.54112276 40.79525414 -75.96886468 40.72697238 -72.39526367 40.67041016 C-70.85594636 40.64044542 -69.31679675 40.59965709 -67.77807617 40.54736328 C-52.81585402 40.05202194 -52.81585402 40.05202194 -45.95288086 45.63330078 C-42.57956843 47.99407125 -39.23902301 47.80533558 -35.25 47.625 C-34.52167969 47.63144531 -33.79335937 47.63789062 -33.04296875 47.64453125 C-27.93523604 47.54256199 -25.76778397 46.25830375 -22 43 C-15.40665197 39.82170492 -9.68728802 39.57049245 -2.4375 39.6875 C-0.93413086 39.68266602 -0.93413086 39.68266602 0.59960938 39.67773438 C6.11369523 39.71766521 10.79174159 40.16651773 16 42 C11.45007651 34.45303438 11.45007651 34.45303438 6 27.5625 C4 25 4 25 4 22.9375 C4.33 22.298125 4.66 21.65875 5 21 C5.433125 20.113125 5.86625 19.22625 6.3125 18.3125 C8.23427119 15.6789617 8.93550852 15.57498706 12 15 C18.98477714 24.22147544 23.24946571 32.36671843 24 44 C25.175625 44.185625 25.175625 44.185625 26.375 44.375 C29 45 29 45 31 47 C31.4375 49.9375 31.4375 49.9375 31 53 C30.17757812 53.40992188 29.35515625 53.81984375 28.5078125 54.2421875 C27.26644531 55.11230469 27.26644531 55.11230469 26 56 C25.32300462 59.37577632 25.32300462 59.37577632 25.4375 63.1875 C25.18213457 71.85545044 23.56855939 76.8166961 17.25 82.8125 C10.66895009 88.07253624 5.35270288 89.24519511 -3.0625 89.375 C-3.73539062 89.38909912 -4.40828125 89.40319824 -5.1015625 89.41772461 C-12.37792488 89.34741729 -18.02874199 86.72597016 -23.359375 81.8515625 C-29.29111476 75.15717049 -30.81747141 67.72818547 -31 59 C-33.97 59 -36.94 59 -40 59 C-40.12955078 60.2684375 -40.12955078 60.2684375 -40.26171875 61.5625 C-41.62381135 72.55921086 -44.6248084 78.34812019 -52.9375 85.5546875 C-57.83269235 88.98503062 -62.39299213 89.35371479 -68.25 89.3125 C-69.00273193 89.31121094 -69.75546387 89.30992188 -70.53100586 89.30859375 C-76.20022487 89.21069035 -80.76639221 88.28375612 -86 86 C-81.58060799 101.07792568 -74.99040031 113.79448624 -60.87890625 121.6796875 C-46.30373427 128.36409473 -31.2523912 129.04713208 -16.06640625 124.140625 C-10.96861567 122.24437678 -6.52717732 120.27856706 -2.3125 116.75 C-0 115 -0 115 2.625 114.5 C5 115 5 115 6.875 116.6875 C8 119 8 119 8.125 121.375 C5.01444255 128.63296738 -2.77687167 131.71586988 -9.63671875 134.67578125 C-25.84580575 141.05775627 -44.89960367 141.5001664 -61.0703125 134.7109375 C-77.40348739 127.056041 -88.69263554 114.88668583 -95 98 C-96.62752348 92.4335931 -97.28022745 87.55944337 -97.1953125 81.78125 C-97.1924826 81.03790405 -97.18965271 80.29455811 -97.18673706 79.52868652 C-97.17566157 77.18561783 -97.15058228 74.84295053 -97.125 72.5 C-97.11495381 70.89844307 -97.10583085 69.29688007 -97.09765625 67.6953125 C-97.0757639 63.7967235 -97.04132386 59.89842948 -97 56 C-97.94875 55.896875 -98.8975 55.79375 -99.875 55.6875 C-103 55 -103 55 -105 52 C-104.83934531 48.78690612 -104.45678916 47.44156286 -102.125 45.1875 C-100 44 -100 44 -97 44 C-96.85304688 42.96552734 -96.85304688 42.96552734 -96.703125 41.91015625 C-94.51274324 28.14473984 -88.28511991 16.43976758 -78 7 C-77.36320312 6.33613281 -76.72640625 5.67226563 -76.0703125 4.98828125 C-56.14689513 -14.1457177 -22.48518923 -13.34752162 0 0 Z " fill="currentColor" transform="translate(122,21)"/>
<path d="M0 0 C0.92876953 -0.01224609 1.85753906 -0.02449219 2.81445312 -0.03710938 C8.92148785 -0.05014931 13.80536664 0.18398309 18.90625 3.890625 C22.28663962 8.57852381 21.16629396 14.6855816 20.5625 20.1875 C18.90951511 26.17724863 15.56295644 29.67654122 10.5625 33.1875 C3.90008833 35.40830389 -5.70685683 35.53717142 -12.125 32.4375 C-15.9628255 30.05654969 -18.67941511 27.74157402 -20.6875 23.625 C-22.03134335 17.46571796 -22.32072737 11.58483142 -20.125 5.625 C-18.13387108 2.74892489 -16.45821943 1.4507057 -13.05444336 0.57299805 C-8.70697918 -0.06742046 -4.38690769 0.00303173 0 0 Z " fill="none" transform="translate(53.4375,68.8125)"/>
<path d="M0 0 C0.91652344 -0.020625 1.83304688 -0.04125 2.77734375 -0.0625 C9.21799776 -0.09925124 15.27568587 0.35097977 20.44262695 4.66235352 C23.1492785 7.94925455 22.19291601 12.67536516 22.109375 16.71875 C21.4955997 22.74975946 19.26990911 27.14307751 14.75 31.25 C8.22094861 35.16743083 1.19855383 34.92794166 -6.25 34.25 C-11.72976683 32.50854868 -14.91121295 29.48454554 -17.8671875 24.55078125 C-19.46848215 20.72848188 -19.71662221 17.8221741 -19.75 13.6875 C-19.7809375 12.40746094 -19.811875 11.12742187 -19.84375 9.80859375 C-19.1047253 5.37930757 -17.76453559 3.96164599 -14.25 1.25 C-9.62964079 -0.27308301 -4.81265478 0.02662603 0 0 Z " fill="none" transform="translate(118.25,68.75)"/>
<path d="M0 0 C0.99 0.33 1.98 0.66 3 1 C2.38125 1.7425 1.7625 2.485 1.125 3.25 C-0.60437281 5.48801188 -1.86106661 7.43739987 -3 10 C-3.36923077 4.58461538 -3.36923077 4.58461538 -1.5 1.625 C-1.005 1.08875 -0.51 0.5525 0 0 Z " fill="currentColor" transform="translate(54,76)"/>
<path d="M0 0 C3.40524375 0.68104875 4.52547983 1.6479153 6.5 4.5 C6.95674603 8.15396822 6.91282332 10.55293473 5.4375 13.9375 C3.5 15.5 3.5 15.5 0 16 C-3.5 15.5 -3.5 15.5 -5.4375 13.9375 C-6.91282332 10.55293473 -6.95674603 8.15396822 -6.5 4.5 C-4.52547983 1.6479153 -3.40524375 0.68104875 0 0 Z " fill="currentColor" transform="translate(114.5,74.5)"/>
<path d="M0 0 C3.5 0.4375 3.5 0.4375 5.4375 1.4375 C7.15886567 4.67771772 7.02960415 7.85707756 6.5 11.4375 C5.4375 13.4375 5.4375 13.4375 3.5 14.4375 C0 14.875 0 14.875 -3.5 14.4375 C-6.13769276 12.22524156 -6.44923246 10.84364032 -6.875 7.4375 C-6.24186108 2.37238863 -5.19492722 0.6493659 0 0 Z " fill="currentColor" transform="translate(57.5,75.5625)"/>
<path d="M0 0 C2.125 0.375 2.125 0.375 4 1 C4.495 2.98 4.495 2.98 5 5 C3.77864002 6.13347055 2.54750819 7.25641587 1.3125 8.375 C0.62800781 9.00148438 -0.05648437 9.62796875 -0.76171875 10.2734375 C-8.40506752 16.169354 -19.82260526 14.96198337 -29 14 C-34.19472725 12.49091722 -38.47652247 10.16312422 -42 6 C-42.1875 3.3125 -42.1875 3.3125 -42 1 C-38.50715897 0.60081817 -37.30297499 0.77092135 -34.4375 2.9375 C-33.633125 3.618125 -32.82875 4.29875 -32 5 C-27.81511576 6.35282569 -23.60760404 6.25909799 -19.25 6.3125 C-18.4765625 6.34150391 -17.703125 6.37050781 -16.90625 6.40039062 C-11.10599205 6.46364847 -6.86866848 5.18341659 -2 2 C-1.34 1.34 -0.68 0.68 0 0 Z " fill="currentColor" transform="translate(106,118)"/>
</svg>
